# xmcd
#
# Track frame offsets:
#	150
#	13486
#	27437
#	40380
#	54392
#	67889
#	82334
#	97573
#	108584
#	120070
#
# Disc length: 1773 seconds
#
# Revision: 0
# Processed by: cddbd v1.5.2PL0 Copyright (c) Steve Scherf et al.
# Submitted via: EasyCDDAExtractor 16.0.6.1
#
DISCID=7906eb0a
DTITLE=Συλλογικός δίσκος - Λαϊκό τραγούδι 1954-1967, 1966-4
DYEAR=2008
DGENRE=Λαϊκή
TTITLE0=Μοσχολιού Βίκυ - Πόρτα κλειστή τα χείλη σου [Γιώργος Ζαμπέτας-Δημήτρης
TTITLE0=Χριστοδούλου]
TTITLE1=Μπιθικώτσης Γρηγόρης - Τι να σού κάνει μιά καρδιά [Αντώνης Κατινάρης-Ε
TTITLE1=υτ. Παπαγιαννοπούλου]
TTITLE2=Γράψας Γιάννης-Μάριος - Ένας πλάϊ στον άλλο [Μάνος Λοϊζος-Μάρω Λημνού]
TTITLE3=Τσετίνης Μπαμπης-Μάριος - Αξίζεις πολλά [Στέφανος Βαρτάνης]
TTITLE4=Καζαντζίδης Στέλιος - Το ταξίδι το στερνό μου [Θεόδωρος Δερβενιώτης-Κώ
TTITLE4=στας Βίρβος]
TTITLE5=Διονυσίου Στράτος - Προαίσθηση [Σταύρος Κάξος-Άννα Βασιλειάδου]
TTITLE6=Κόκοτας Σταμάτης - Ποιος ήπιε δάκρυ για νερό [Γιώργος Ζαμπέτας-Γιάννης
TTITLE6=Παπανικολόπουλος]
TTITLE7=Μοσχολιού Βίκυ - Ο δρόμος ο πλατύς [Γιώργος Ζαμπέτας-Δημήτρης Χριστοδο
TTITLE7=ύλου]
TTITLE8=Μπιθικώτσης Γρηγόρης-Γκίκα Βούλα - Μη μού λες εμένα τέτοια [Άκης Πάνου
TTITLE8=]
TTITLE9=Μοσχολιού Βίκυ - Το παγωμένο χέρι σου [Γιώργος Ζαμπέτας-Γιάννης Παπανι
TTITLE9=κολόπουλος]
EXTD=
EXTT0=
EXTT1=
EXTT2=
EXTT3=
EXTT4=
EXTT5=
EXTT6=
EXTT7=
EXTT8=
EXTT9=
PLAYORDER=
